<svg xmlns="http://www.w3.org/2000/svg" width="86" height="67" viewBox="0 0 86 67">
    <g fill="none" fill-rule="evenodd">
        <path fill="#3F2C90" d="M57.394 41.452C73.91 30.935 85.036 16.512 85.214 6 89.41 16.758 76.385 35.047 56 47c.099-.304.186-.615.264-.933l1.13-4.615" opacity=".702"/>
        <path fill="#FFFFFE" d="M14.862 67h37.762c8.184 0 14.866-6.633 14.866-14.758V14.757c0-.85-.075-1.685-.21-2.5C74.486 6.486 81.173 3.268 86 4.425 64.463-4.433 37.835 42.532 32.726 51.785L13.93 23.991l17.545 10.215C42.053 20.731 53.494 10.458 63.37 4.58 60.656 1.765 56.839 0 52.624 0H14.862C6.681 0 0 6.633 0 14.757v37.485C0 60.367 6.681 67 14.862 67"/>
    </g>
</svg>
